<svg width="135" height="22" viewBox="0 0 135 22" fill="none" xmlns="http://www.w3.org/2000/svg">
<path d="M4.29792 20.7536H0.440002V1.0416H4.29792C5.81856 1.0416 7.24534 1.30443 8.57824 1.83008C9.92992 2.33696 11.0563 3.04096 11.9574 3.94208C12.8773 4.86198 13.5813 5.89451 14.0694 7.03968C14.5763 8.16608 14.8298 9.45206 14.8298 10.8976C14.8298 12.3431 14.5763 13.6385 14.0694 14.7837C13.5813 15.9101 12.8773 16.9332 11.9574 17.8531C11.0563 18.7542 9.92992 19.4676 8.57824 19.9933C7.24534 20.5002 5.81856 20.7536 4.29792 20.7536ZM4.1008 18.0502C5.33984 18.0502 6.43808 17.8719 7.39552 17.5152C8.35296 17.1397 9.1696 16.6235 9.84544 15.9664C10.5401 15.3093 11.0469 14.5772 11.3661 13.7699C11.704 12.9439 11.873 11.9865 11.873 10.8976C11.873 9.80875 11.704 8.8607 11.3661 8.05344C11.0469 7.22742 10.5401 6.48587 9.84544 5.8288C9.1696 5.17174 8.35296 4.66486 7.39552 4.30816C6.43808 3.9327 5.33984 3.74496 4.1008 3.74496H3.28416V18.0502H4.1008Z" fill="black"/>
<path d="M28.4462 12.4746L25.1797 4.4208L21.9131 12.4746H28.4462ZM31.7973 20.7536L29.5726 15.2624H20.7867L18.5621 20.7536H15.6616L23.6309 1.0416H26.7285L34.6977 20.7536H31.7973Z" fill="black"/>
<path d="M50.6312 20.7536L40.381 5.49088V20.7536H37.565V1.0416H40.6908L50.9692 16.3888V1.0416H53.7852V20.7536H50.6312Z" fill="black"/>
<path d="M64.0138 18.3037C65.0464 18.3037 65.863 18.0315 66.4638 17.487C67.0645 16.9426 67.3649 16.2105 67.3649 15.2906C67.3649 14.7649 67.2804 14.3425 67.1114 14.0234C66.9613 13.6854 66.7266 13.4038 66.4074 13.1786C66.1071 12.9345 65.7316 12.728 65.281 12.559C64.8305 12.3713 64.3236 12.1742 63.7604 11.9677L62.4087 11.4608C61.6578 11.1792 61.0195 10.8882 60.4938 10.5878C59.987 10.2875 59.5458 9.912 59.1703 9.46144C58.7949 9.01088 58.5039 8.52278 58.2974 7.99712C58.0909 7.47147 57.9876 6.85195 57.9876 6.13856C57.9876 5.50027 58.1002 4.86198 58.3255 4.22368C58.5696 3.58539 58.9357 3.0128 59.4238 2.50592C59.9306 1.98027 60.5595 1.55787 61.3105 1.23872C62.0614 0.919576 62.9531 0.760002 63.9857 0.760002C65.8818 0.760002 67.3649 1.28566 68.435 2.33696C69.505 3.38827 70.0401 4.82443 70.0401 6.64544H67.0551V6.27936C67.0551 5.37824 66.7641 4.69302 66.1822 4.22368C65.619 3.73558 64.8868 3.49152 63.9857 3.49152C63.0658 3.49152 62.3336 3.72619 61.7892 4.19552C61.2448 4.64608 60.9726 5.27499 60.9726 6.08224C60.9726 6.43894 61.0195 6.75808 61.1134 7.03968C61.226 7.30251 61.4043 7.55595 61.6484 7.8C61.9112 8.02528 62.2491 8.25056 62.6622 8.47584C63.0939 8.68235 63.6196 8.89824 64.2391 9.12352L65.3655 9.54592C66.2479 9.86507 66.9613 10.1842 67.5057 10.5034C68.0689 10.8225 68.5664 11.2074 68.9982 11.6579C69.4299 12.1085 69.7585 12.606 69.9838 13.1504C70.2278 13.6948 70.3498 14.3707 70.3498 15.1779C70.3498 15.9664 70.1903 16.7173 69.8711 17.4307C69.5707 18.1253 69.139 18.7449 68.5758 19.2893C68.0126 19.8149 67.3367 20.2373 66.5482 20.5565C65.7785 20.8756 64.9337 21.0352 64.0138 21.0352C63.094 21.0352 62.2398 20.8944 61.4513 20.6128C60.6628 20.3312 59.9776 19.9276 59.3956 19.4019C58.8136 18.8575 58.3537 18.191 58.0158 17.4026C57.6778 16.6141 57.5089 15.7223 57.5089 14.7274H60.4938V15.009C60.4938 16.0415 60.8224 16.8487 61.4794 17.4307C62.1365 18.0127 62.9813 18.3037 64.0138 18.3037Z" fill="black"/>
<path d="M76.6018 20.7536H73.7295V1.0416H76.6018V20.7536Z" fill="black"/>
<path d="M94.3837 20.7536L84.1335 5.49088V20.7536H81.3175V1.0416H84.4433L94.7217 16.3888V1.0416H97.5377V20.7536H94.3837Z" fill="black"/>
<path d="M107.766 18.3037C108.799 18.3037 109.616 18.0315 110.216 17.487C110.817 16.9426 111.117 16.2105 111.117 15.2906C111.117 14.7649 111.033 14.3425 110.864 14.0234C110.714 13.6854 110.479 13.4038 110.16 13.1786C109.86 12.9345 109.484 12.728 109.034 12.559C108.583 12.3713 108.076 12.1742 107.513 11.9677L106.161 11.4608C105.41 11.1792 104.772 10.8882 104.246 10.5878C103.739 10.2875 103.298 9.912 102.923 9.46144C102.547 9.01088 102.256 8.52278 102.05 7.99712C101.843 7.47147 101.74 6.85195 101.74 6.13856C101.74 5.50027 101.853 4.86198 102.078 4.22368C102.322 3.58539 102.688 3.0128 103.176 2.50592C103.683 1.98027 104.312 1.55787 105.063 1.23872C105.814 0.919576 106.706 0.760002 107.738 0.760002C109.634 0.760002 111.117 1.28566 112.187 2.33696C113.258 3.38827 113.793 4.82443 113.793 6.64544H110.808V6.27936C110.808 5.37824 110.517 4.69302 109.935 4.22368C109.371 3.73558 108.639 3.49152 107.738 3.49152C106.818 3.49152 106.086 3.72619 105.542 4.19552C104.997 4.64608 104.725 5.27499 104.725 6.08224C104.725 6.43894 104.772 6.75808 104.866 7.03968C104.978 7.30251 105.157 7.55595 105.401 7.8C105.664 8.02528 106.002 8.25056 106.415 8.47584C106.846 8.68235 107.372 8.89824 107.992 9.12352L109.118 9.54592C110 9.86507 110.714 10.1842 111.258 10.5034C111.821 10.8225 112.319 11.2074 112.751 11.6579C113.182 12.1085 113.511 12.606 113.736 13.1504C113.98 13.6948 114.102 14.3707 114.102 15.1779C114.102 15.9664 113.943 16.7173 113.624 17.4307C113.323 18.1253 112.891 18.7449 112.328 19.2893C111.765 19.8149 111.089 20.2373 110.301 20.5565C109.531 20.8756 108.686 21.0352 107.766 21.0352C106.846 21.0352 105.992 20.8944 105.204 20.6128C104.415 20.3312 103.73 19.9276 103.148 19.4019C102.566 18.8575 102.106 18.191 101.768 17.4026C101.43 16.6141 101.261 15.7223 101.261 14.7274H104.246V15.009C104.246 16.0415 104.575 16.8487 105.232 17.4307C105.889 18.0127 106.734 18.3037 107.766 18.3037Z" fill="black"/>
<path d="M127.859 12.4746L124.592 4.4208L121.326 12.4746H127.859ZM131.21 20.7536L128.985 15.2624H120.199L117.975 20.7536H115.074L123.043 1.0416H126.141L134.11 20.7536H131.21Z" fill="black"/>
</svg>
